<svg width="71" height="71" viewBox="0 0 71 71" fill="none" xmlns="http://www.w3.org/2000/svg">
<path d="M35.5 0C15.8941 0 0 15.8941 0 35.5C0 55.1059 15.8941 71 35.5 71C55.1059 71 71 55.1059 71 35.5C70.978 15.9034 55.0966 0.0219565 35.5 0ZM35.5 68.6333C17.2011 68.6333 2.36667 53.7989 2.36667 35.5C2.36667 17.2011 17.2011 2.36667 35.5 2.36667C53.7989 2.36667 68.6333 17.2011 68.6333 35.5C68.6125 53.7902 53.7902 68.6125 35.5 68.6333Z" fill="#375CF6"/>
<path d="M52.0667 21.3H18.9333C18.2798 21.3 17.75 21.8299 17.75 22.4834V48.5167C17.75 49.1702 18.2798 49.7001 18.9333 49.7001H52.0667C52.7202 49.7001 53.25 49.1702 53.25 48.5167V22.4834C53.25 21.8299 52.7202 21.3 52.0667 21.3ZM48.8714 23.6667L35.5 35.1251L22.1286 23.6667H48.8714ZM20.1167 47.3334V25.0557L34.7298 37.5813C35.1724 37.9603 35.8253 37.9603 36.2679 37.5813L50.8833 25.0557V47.3334H20.1167Z" fill="#375CF6"/>
</svg>
