<svg width="48" height="49" viewBox="0 0 48 49" fill="none" xmlns="http://www.w3.org/2000/svg">
<path d="M24.0001 0.102051C10.7454 0.102051 0 11.0713 0 24.6022C0 36.7379 8.65252 46.7882 19.9974 48.7344V29.7136H14.2079V22.8688H19.9974V17.8217C19.9974 11.9656 23.5011 8.77438 28.6193 8.77438C31.0706 8.77438 33.1772 8.96085 33.7887 9.04297V15.1641L30.2389 15.1659C27.4561 15.1659 26.9195 16.5156 26.9195 18.4968V22.8653H33.5597L32.6936 29.7101H26.9195V48.8981C38.7941 47.4227 48 37.1163 48 24.5952C48 11.0713 37.2546 0.102051 24.0001 0.102051Z" fill="#375CF6"/>
</svg>
