<svg width="47" height="46" viewBox="0 0 47 46" fill="none" xmlns="http://www.w3.org/2000/svg">
<g clip-path="url(#clip0)">
<path d="M23.5 0.958252C10.5162 0.958252 0 11.0783 0 23.5596C0 33.5473 6.73275 42.0171 16.0681 45.0033C17.2431 45.216 17.674 44.5164 17.674 43.9165C17.674 43.3798 17.6544 41.9577 17.6446 40.0736C11.1077 41.4363 9.729 37.0414 9.729 37.0414C8.65975 34.4328 7.11462 33.7352 7.11462 33.7352C4.98592 32.3341 7.27913 32.3628 7.27913 32.3628C9.63892 32.52 10.8785 34.6916 10.8785 34.6916C12.974 38.1473 16.3795 37.1488 17.7229 36.5718C17.9344 35.1094 18.5395 34.1147 19.2113 33.5493C13.9923 32.9838 8.507 31.0403 8.507 22.3808C8.507 19.9141 9.41763 17.8978 10.9255 16.3165C10.6612 15.7453 9.86804 13.4473 11.1312 10.3346C11.1312 10.3346 13.0993 9.72892 17.5937 12.6518C19.4737 12.1497 21.4712 11.9005 23.4687 11.889C25.4662 11.9005 27.4637 12.1497 29.3437 12.6518C33.8087 9.72892 35.7768 10.3346 35.7768 10.3346C37.0399 13.4473 36.2468 15.7453 36.0118 16.3165C37.5099 17.8978 38.4205 19.9141 38.4205 22.3808C38.4205 31.0633 32.9274 32.9743 27.6987 33.5301C28.5212 34.2086 29.2849 35.5943 29.2849 37.7123C29.2849 40.7368 29.2555 43.1671 29.2555 43.9012C29.2555 44.4934 29.6668 45.2007 30.8712 44.9745C40.2731 42.0075 47 33.532 47 23.5596C47 11.0783 36.4779 0.958252 23.5 0.958252Z" fill="#375CF6"/>
</g>
<defs>
<clipPath id="clip0">
<rect width="47" height="46" fill="white"/>
</clipPath>
</defs>
</svg>
