<svg width="71" height="71" viewBox="0 0 71 71" fill="none" xmlns="http://www.w3.org/2000/svg">
<g clip-path="url(#clip0)">
<path d="M60.0269 10.0892C46.0986 -3.36307 24.017 -3.36307 10.0888 10.0892C-3.70128 24.3672 -3.30578 47.1206 10.9722 60.9107C24.9004 74.3629 46.982 74.3629 60.9102 60.9107C74.7003 46.6329 74.3048 23.8793 60.0269 10.0892ZM59.221 59.2214L59.209 59.2095C46.1027 72.3039 24.8629 72.2942 11.7685 59.1878C-1.3259 46.0815 -1.31621 24.8418 11.7901 11.7474C24.8965 -1.34697 46.1363 -1.33728 59.2307 11.7689C65.5203 18.0643 69.0509 26.6009 69.0451 35.4999C69.0457 44.397 65.5119 52.9299 59.221 59.2214Z" fill="#375CF6"/>
<path d="M55.6871 45.7315L48.9541 39.0224C47.426 37.4906 44.9455 37.4877 43.4138 39.0158C43.4115 39.018 43.4094 39.0201 43.4072 39.0224L39.5495 42.8801C39.2576 43.1726 38.7977 43.2131 38.4593 42.9759C36.3479 41.5004 34.3714 39.8405 32.5529 38.016C30.9243 36.391 29.4262 34.6406 28.0722 32.7805C27.8268 32.4463 27.8624 31.983 28.156 31.6903L32.1096 27.7367C33.636 26.2074 33.636 23.731 32.1096 22.2017L25.3766 15.4687C23.825 13.9854 21.3811 13.9854 19.8296 15.4687L17.6971 17.6012C14.4766 20.7855 13.3268 25.5138 14.7259 29.8213C15.7699 32.9728 17.2456 35.9644 19.1108 38.7108C20.7899 41.2287 22.7163 43.5725 24.8614 45.7075C27.1936 48.0564 29.7769 50.1414 32.5649 51.9254C35.6297 53.9254 38.9949 55.4219 42.5326 56.3582C43.4421 56.5824 44.3755 56.695 45.3121 56.6936C48.5231 56.6739 51.5951 55.3814 53.8542 53.0994L55.6873 51.2664C57.2135 49.7372 57.2135 47.2609 55.6871 45.7315ZM53.9906 49.6325C53.989 49.634 53.9875 49.6357 53.9858 49.6372L53.9977 49.6013L52.1647 51.4343C49.8095 53.8192 46.3795 54.8005 43.1194 54.0221C39.8348 53.1429 36.7123 51.7435 33.8704 49.8769C31.2301 48.1894 28.7833 46.2169 26.5743 43.9944C24.5418 41.9767 22.7158 39.7613 21.1231 37.3811C19.381 34.82 18.0022 32.03 17.0257 29.0905C15.9064 25.6373 16.834 21.8482 19.4219 19.3025L21.5544 17.17C22.1473 16.5744 23.1107 16.5723 23.7061 17.1652C23.7077 17.1668 23.7093 17.1683 23.7109 17.17L30.4439 23.903C31.0395 24.4959 31.0416 25.4593 30.4487 26.0547C30.4471 26.0563 30.4456 26.0578 30.4439 26.0595L26.4903 30.0131C25.3559 31.1351 25.2133 32.9182 26.1549 34.2063C27.5849 36.1688 29.1673 38.0154 30.8873 39.7294C32.805 41.6554 34.8897 43.4074 37.1171 44.965C38.4041 45.8627 40.149 45.7113 41.2623 44.6055L45.0841 40.7238C45.677 40.1283 46.6404 40.1262 47.2358 40.7191C47.2373 40.7206 47.2389 40.7222 47.2406 40.7238L53.9857 47.4809C54.5814 48.0736 54.5835 49.0369 53.9906 49.6325Z" fill="#375CF6"/>
</g>
<defs>
<clipPath id="clip0">
<rect width="71" height="71" fill="white"/>
</clipPath>
</defs>
</svg>
